<svg width="25" height="25" viewBox="0 0 25 25" fill="none" xmlns="http://www.w3.org/2000/svg">
<path d="M20 5.75H5C4.17157 5.75 3.5 6.42157 3.5 7.25V17.75C3.5 18.5784 4.17157 19.25 5 19.25H20C20.8284 19.25 21.5 18.5784 21.5 17.75V7.25C21.5 6.42157 20.8284 5.75 20 5.75Z" stroke="#F5F5F5" stroke-width="1.5" stroke-linecap="round" stroke-linejoin="round"/>
<path d="M3.5 11.75H8.825C8.99773 11.7491 9.16535 11.8085 9.29889 11.9181C9.43242 12.0276 9.52346 12.1804 9.55625 12.35C9.69948 13.0246 10.07 13.6295 10.6059 14.0635C11.1417 14.4975 11.8104 14.7343 12.5 14.7343C13.1896 14.7343 13.8583 14.4975 14.3941 14.0635C14.93 13.6295 15.3005 13.0246 15.4437 12.35C15.4765 12.1804 15.5676 12.0276 15.7011 11.9181C15.8346 11.8085 16.0023 11.7491 16.175 11.75H21.5" stroke="#F5F5F5" stroke-width="1.5" stroke-linecap="round" stroke-linejoin="round"/>
<path d="M3.5 8.75H21.5" stroke="#F5F5F5" stroke-width="1.5" stroke-linecap="round" stroke-linejoin="round"/>
</svg>
