<svg width="25" height="25" viewBox="0 0 25 25" fill="none" xmlns="http://www.w3.org/2000/svg">
<path d="M12.5 20.75C12.5 20.75 3.125 15.5 3.125 9.12501C3.125 7.99803 3.51546 6.90585 4.22996 6.03431C4.94445 5.16277 5.93884 4.5657 7.04393 4.34468C8.14903 4.12366 9.29657 4.29235 10.2913 4.82204C11.2861 5.35174 12.0665 6.20972 12.5 7.25001V7.25001C12.9335 6.20972 13.7139 5.35174 14.7087 4.82204C15.7034 4.29235 16.851 4.12366 17.9561 4.34468C19.0612 4.5657 20.0555 5.16277 20.77 6.03431C21.4845 6.90585 21.875 7.99803 21.875 9.12501C21.875 15.5 12.5 20.75 12.5 20.75Z" stroke="#F5F5F5" stroke-width="1.5" stroke-linecap="round" stroke-linejoin="round"/>
</svg>
