<svg width="25" height="25" viewBox="0 0 25 25" fill="none" xmlns="http://www.w3.org/2000/svg">
<path d="M12.5 21.5C17.4706 21.5 21.5 17.4706 21.5 12.5C21.5 7.52944 17.4706 3.5 12.5 3.5C7.52944 3.5 3.5 7.52944 3.5 12.5C3.5 17.4706 7.52944 21.5 12.5 21.5Z" stroke="#F5F5F5" stroke-width="1.5" stroke-linecap="round" stroke-linejoin="round"/>
<path d="M12.5 15.5C14.5711 15.5 16.25 13.8211 16.25 11.75C16.25 9.67893 14.5711 8 12.5 8C10.4289 8 8.75 9.67893 8.75 11.75C8.75 13.8211 10.4289 15.5 12.5 15.5Z" stroke="#F5F5F5" stroke-width="1.5" stroke-linecap="round" stroke-linejoin="round"/>
<path d="M6.48145 19.1938C7.04574 18.0824 7.90678 17.1488 8.96914 16.4968C10.0315 15.8447 11.2537 15.4995 12.5002 15.4995C13.7467 15.4995 14.9689 15.8447 16.0312 16.4968C17.0936 17.1488 17.9547 18.0824 18.5189 19.1938" stroke="#F5F5F5" stroke-width="1.5" stroke-linecap="round" stroke-linejoin="round"/>
</svg>
