<svg width="20" height="20" viewBox="0 0 20 20" fill="none" xmlns="http://www.w3.org/2000/svg">
<g id="01 align center">
<path id="Vector" d="M19.9999 18.8215L14.7816 13.6032C16.1371 11.9453 16.8036 9.82989 16.6431 7.69445C16.4827 5.55901 15.5076 3.56693 13.9196 2.13025C12.3316 0.693577 10.2521 -0.0777715 8.11131 -0.024245C5.97052 0.0292815 3.93219 0.903588 2.41795 2.41783C0.90371 3.93207 0.0294036 5.97039 -0.0241229 8.11119C-0.0776494 10.252 0.693699 12.3314 2.13037 13.9195C3.56705 15.5075 5.55913 16.4826 7.69457 16.643C9.83002 16.8035 11.9454 16.137 13.6033 14.7815L18.8216 19.9998L19.9999 18.8215ZM8.33327 14.9998C7.01473 14.9998 5.7258 14.6088 4.62947 13.8763C3.53314 13.1437 2.67866 12.1025 2.17408 10.8844C1.66949 9.6662 1.53747 8.32576 1.7947 7.03255C2.05194 5.73934 2.68688 4.55146 3.61923 3.61911C4.55158 2.68676 5.73946 2.05182 7.03267 1.79458C8.32588 1.53735 9.66632 1.66937 10.8845 2.17395C12.1027 2.67854 13.1439 3.53302 13.8764 4.62935C14.6089 5.72568 14.9999 7.01461 14.9999 8.33315C14.998 10.1007 14.2949 11.7952 13.0451 13.045C11.7953 14.2948 10.1008 14.9978 8.33327 14.9998Z" fill="black"/>
</g>
</svg>
