<svg width="30" height="31" viewBox="0 0 30 31" fill="none" xmlns="http://www.w3.org/2000/svg">
<g id="Bell">
<path id="Vector" d="M6.58593 12.6876C6.58437 11.5762 6.80271 10.4754 7.22838 9.44876C7.65405 8.42207 8.27864 7.48975 9.06618 6.70548C9.85371 5.92122 10.7886 5.30051 11.8171 4.87911C12.8455 4.45771 13.9472 4.24395 15.0586 4.25013C19.6992 4.28529 23.4141 8.14076 23.4141 12.7931V13.6251C23.4141 17.8204 24.293 20.2579 25.0664 21.5939C25.1485 21.7362 25.1919 21.8975 25.192 22.0618C25.1921 22.2261 25.1491 22.3875 25.0672 22.53C24.9853 22.6724 24.8675 22.7908 24.7254 22.8733C24.5833 22.9558 24.4221 22.9996 24.2578 23.0001H5.74218C5.5779 22.9996 5.41665 22.9558 5.27459 22.8733C5.13253 22.7908 5.01465 22.6724 4.93276 22.53C4.85087 22.3875 4.80784 22.2261 4.80798 22.0618C4.80813 21.8975 4.85144 21.7362 4.93359 21.5939C5.70703 20.2579 6.58593 17.8204 6.58593 13.6251V12.6876Z" stroke="black" stroke-width="2" stroke-linecap="round" stroke-linejoin="round"/>
<path id="Vector_2" d="M11.25 23V23.9375C11.25 24.9321 11.6451 25.8859 12.3483 26.5891C13.0516 27.2924 14.0054 27.6875 15 27.6875C15.9946 27.6875 16.9484 27.2924 17.6516 26.5891C18.3549 25.8859 18.75 24.9321 18.75 23.9375V23" stroke="black" stroke-width="2" stroke-linecap="round" stroke-linejoin="round"/>
</g>
</svg>
