<svg width="20" height="20" viewBox="0 0 20 20" fill="none" xmlns="http://www.w3.org/2000/svg">
<g id="filter" clip-path="url(#clip0_497_1450)">
<g id="01 align center">
<path id="Vector" d="M9.10917 2.29188C8.9303 1.63377 8.53986 1.0528 7.99806 0.638607C7.45627 0.224409 6.79323 0 6.11125 0C5.42927 0 4.76623 0.224409 4.22444 0.638607C3.68264 1.0528 3.2922 1.63377 3.11333 2.29188H0V3.95855H3.11333C3.2922 4.61666 3.68264 5.19763 4.22444 5.61182C4.76623 6.02602 5.42927 6.25043 6.11125 6.25043C6.79323 6.25043 7.45627 6.02602 7.99806 5.61182C8.53986 5.19763 8.9303 4.61666 9.10917 3.95855H20V2.29188H9.10917ZM6.11083 4.58355C5.8224 4.58355 5.54045 4.49802 5.30063 4.33778C5.0608 4.17753 4.87389 3.94977 4.76351 3.6833C4.65313 3.41682 4.62425 3.1236 4.68052 2.84071C4.73679 2.55782 4.87568 2.29797 5.07964 2.09402C5.28359 1.89007 5.54344 1.75117 5.82633 1.6949C6.10922 1.63863 6.40244 1.66751 6.66891 1.77789C6.93539 1.88827 7.16315 2.07519 7.32339 2.31501C7.48364 2.55483 7.56917 2.83678 7.56917 3.12522C7.56851 3.51179 7.41465 3.88234 7.1413 4.15568C6.86795 4.42903 6.4974 4.58289 6.11083 4.58355Z" fill="black"/>
<path id="Vector_2" d="M13.8892 6.875C13.2079 6.87744 12.5461 7.10275 12.0049 7.51654C11.4636 7.93033 11.0727 8.50986 10.8917 9.16667H0V10.8333H10.8917C11.0702 11.4916 11.4605 12.0728 12.0023 12.4871C12.544 12.9015 13.2071 13.126 13.8892 13.126C14.5712 13.126 15.2343 12.9015 15.7761 12.4871C16.3178 12.0728 16.7081 11.4916 16.8867 10.8333H20V9.16667H16.8867C16.7057 8.50986 16.3147 7.93033 15.7735 7.51654C15.2322 7.10275 14.5705 6.87744 13.8892 6.875ZM13.8892 11.4583C13.6007 11.4583 13.3188 11.3728 13.079 11.2126C12.8391 11.0523 12.6522 10.8246 12.5418 10.5581C12.4315 10.2916 12.4026 9.99838 12.4589 9.71549C12.5151 9.4326 12.654 9.17275 12.858 8.9688C13.0619 8.76485 13.3218 8.62596 13.6047 8.56969C13.8875 8.51342 14.1808 8.5423 14.4472 8.65268C14.7137 8.76305 14.9415 8.94997 15.1017 9.18979C15.262 9.42962 15.3475 9.71157 15.3475 10C15.3471 10.3866 15.1933 10.7573 14.9199 11.0307C14.6465 11.3041 14.2758 11.4579 13.8892 11.4583Z" fill="black"/>
</g>
</g>
<defs>
<clipPath id="clip0_497_1450">
<rect width="20" height="20" fill="white"/>
</clipPath>
</defs>
</svg>
