<svg width="82" height="69" viewBox="0 0 82 69" fill="none" xmlns="http://www.w3.org/2000/svg">
<rect x="0.5" y="0.57959" width="81" height="67.8405" rx="20.25" fill="#FFD700"/>
<path d="M39.1961 25.4707C38.8339 24.138 38.0432 22.9615 36.9461 22.1228C35.8489 21.284 34.5063 20.8296 33.1253 20.8296C31.7443 20.8296 30.4016 21.284 29.3045 22.1228C28.2074 22.9615 27.4167 24.138 27.0545 25.4707H20.75V28.8457H27.0545C27.4167 30.1783 28.2074 31.3548 29.3045 32.1935C30.4016 33.0323 31.7443 33.4867 33.1253 33.4867C34.5063 33.4867 35.8489 33.0323 36.9461 32.1935C38.0432 31.3548 38.8339 30.1783 39.1961 28.8457H61.25V25.4707H39.1961ZM33.1244 30.1113C32.5404 30.1113 31.9694 29.9381 31.4838 29.6136C30.9981 29.2891 30.6196 28.8279 30.3961 28.2883C30.1726 27.7487 30.1141 27.1549 30.2281 26.582C30.342 26.0092 30.6233 25.483 31.0363 25.07C31.4493 24.657 31.9755 24.3757 32.5483 24.2618C33.1212 24.1478 33.7149 24.2063 34.2545 24.4298C34.7942 24.6533 35.2554 25.0318 35.5799 25.5175C35.9044 26.0031 36.0776 26.5741 36.0776 27.1582C36.0762 27.941 35.7647 28.6913 35.2111 29.2448C34.6576 29.7984 33.9072 30.1099 33.1244 30.1113Z" fill="black"/>
<path d="M48.8756 35.5117C47.496 35.5167 46.1559 35.9729 45.0599 36.8108C43.9639 37.6488 43.1722 38.8223 42.8056 40.1523H20.75V43.5273H42.8056C43.1672 44.8603 43.9576 46.0372 45.0546 46.8763C46.1517 47.7154 47.4944 48.1701 48.8756 48.1701C50.2567 48.1701 51.5995 47.7154 52.6965 46.8763C53.7936 46.0372 54.5839 44.8603 54.9455 43.5273H61.25V40.1523H54.9455C54.579 38.8223 53.7873 37.6488 52.6913 36.8108C51.5953 35.9729 50.2552 35.5167 48.8756 35.5117ZM48.8756 44.793C48.2915 44.793 47.7205 44.6198 47.2349 44.2953C46.7493 43.9708 46.3707 43.5096 46.1472 42.97C45.9237 42.4303 45.8652 41.8366 45.9792 41.2637C46.0931 40.6909 46.3744 40.1647 46.7874 39.7517C47.2004 39.3387 47.7266 39.0574 48.2994 38.9435C48.8723 38.8295 49.4661 38.888 50.0057 39.1115C50.5453 39.335 51.0065 39.7135 51.331 40.1992C51.6555 40.6848 51.8287 41.2558 51.8287 41.8398C51.8278 42.6228 51.5164 43.3734 50.9628 43.927C50.4091 44.4807 49.6585 44.7921 48.8756 44.793Z" fill="black"/>
</svg>
