<svg width="40" height="40" viewBox="0 0 40 40" fill="none" xmlns="http://www.w3.org/2000/svg">
<path d="M34.7453 24.7595L27.3844 21.4611L27.3641 21.4517C26.9819 21.2883 26.5651 21.2227 26.1512 21.2609C25.7373 21.2991 25.3395 21.4399 24.9938 21.6705C24.9531 21.6974 24.9139 21.7266 24.8766 21.758L21.0735 25.0002C18.6641 23.8299 16.1766 21.3611 15.0063 18.983L18.2531 15.122C18.2844 15.083 18.3141 15.0439 18.3422 15.0017C18.5679 14.6569 18.7048 14.2616 18.7408 13.8511C18.7768 13.4405 18.7107 13.0274 18.5485 12.6486V12.6299L15.2406 5.25642C15.0262 4.76152 14.6574 4.34926 14.1894 4.08117C13.7213 3.81308 13.1792 3.70355 12.6438 3.76892C10.5265 4.04753 8.58311 5.08731 7.17647 6.69407C5.76984 8.30083 4.99619 10.3647 5.00001 12.5002C5.00001 24.9064 15.0938 35.0002 27.5 35.0002C29.6355 35.004 31.6994 34.2303 33.3061 32.8237C34.9129 31.4171 35.9527 29.4737 36.2313 27.3564C36.2968 26.8212 36.1875 26.2792 35.9197 25.8112C35.6519 25.3432 35.2399 24.9743 34.7453 24.7595ZM27.5 32.5002C22.1975 32.4944 17.1137 30.3854 13.3643 26.6359C9.6148 22.8864 7.5058 17.8027 7.50001 12.5002C7.49414 10.9744 8.04384 9.4986 9.04648 8.34846C10.0491 7.19832 11.4361 6.45246 12.9485 6.25017C12.9478 6.25641 12.9478 6.26269 12.9485 6.26892L16.2297 13.6127L13 17.4783C12.9672 17.516 12.9375 17.5562 12.911 17.5986C12.6758 17.9594 12.5379 18.3749 12.5105 18.8046C12.4831 19.2344 12.5672 19.664 12.7547 20.0517C14.1703 22.947 17.0875 25.8424 20.0141 27.2564C20.4046 27.4421 20.8367 27.5233 21.2681 27.4921C21.6994 27.4609 22.1153 27.3183 22.475 27.0783C22.5151 27.0513 22.5537 27.0221 22.5906 26.9908L26.3891 23.7502L33.7328 27.0392C33.7328 27.0392 33.7453 27.0392 33.75 27.0392C33.5502 28.5537 32.8054 29.9435 31.6551 30.9486C30.5047 31.9537 29.0276 32.5053 27.5 32.5002Z" fill="black"/>
</svg>
