<svg width="31" height="31" viewBox="0 0 31 31" fill="none" xmlns="http://www.w3.org/2000/svg">
<g id="ShoppingCartSimple">
<path id="Vector" d="M10.375 27.6875C11.4105 27.6875 12.25 26.848 12.25 25.8125C12.25 24.777 11.4105 23.9375 10.375 23.9375C9.33947 23.9375 8.5 24.777 8.5 25.8125C8.5 26.848 9.33947 27.6875 10.375 27.6875Z" fill="black"/>
<path id="Vector_2" d="M22.5625 27.6875C23.598 27.6875 24.4375 26.848 24.4375 25.8125C24.4375 24.777 23.598 23.9375 22.5625 23.9375C21.527 23.9375 20.6875 24.777 20.6875 25.8125C20.6875 26.848 21.527 27.6875 22.5625 27.6875Z" fill="black"/>
<path id="Vector_3" d="M5.95703 8.9375H26.9805L23.8867 19.7656C23.7763 20.1586 23.54 20.5045 23.2139 20.7501C22.8879 20.9956 22.4902 21.1274 22.082 21.125H10.8555C10.4473 21.1274 10.0496 20.9956 9.72358 20.7501C9.39754 20.5045 9.16116 20.1586 9.05078 19.7656L4.80859 4.92969C4.75253 4.7337 4.63412 4.56132 4.47129 4.43867C4.30847 4.31602 4.1101 4.24979 3.90625 4.25H1.9375" stroke="black" stroke-width="2" stroke-linecap="round" stroke-linejoin="round"/>
</g>
</svg>
