<svg width="20" height="21" viewBox="0 0 20 21" fill="none" xmlns="http://www.w3.org/2000/svg">
<path d="M0.6284 16.4428C0.6284 14.7684 0.7756 13.3332 1.07 12.1372C1.3828 10.9412 1.8704 9.9568 2.5328 9.184C3.1952 8.4112 4.0416 7.8224 5.072 7.4176C6.1208 7.0128 7.3904 6.7644 8.8808 6.6724V0.793598H11.3096V6.6724C12.6896 6.7644 13.8948 7.0036 14.9252 7.39C15.9556 7.7764 16.8112 8.356 17.492 9.1288C18.1912 9.8832 18.7064 10.8584 19.0376 12.0544C19.3872 13.232 19.562 14.6672 19.562 16.36V20.5H17.1056V16.4152C17.1056 15.0536 16.9768 13.9036 16.7192 12.9652C16.48 12.0084 16.1212 11.2356 15.6428 10.6468C15.1644 10.058 14.5572 9.6164 13.8212 9.322C13.1036 9.0276 12.2664 8.8436 11.3096 8.77V15.9736H8.8808V8.77C7.832 8.8436 6.9396 9.0368 6.2036 9.3496C5.4676 9.644 4.8696 10.0856 4.4096 10.6744C3.9496 11.2632 3.6092 12.0268 3.3884 12.9652C3.186 13.9036 3.0848 15.0444 3.0848 16.3876V20.5H0.6284V16.4428Z" fill="#86EE60"/>
</svg>
